<?xml version="1.0" encoding="utf-8"?>
<!-- Generator: Adobe Illustrator 27.0.0, SVG Export Plug-In . SVG Version: 6.00 Build 0)  -->
<svg version="1.1" id="Layer_1" xmlns="http://www.w3.org/2000/svg" xmlns:xlink="http://www.w3.org/1999/xlink" x="0px" y="0px"
	 viewBox="0 0 216 216" style="enable-background:new 0 0 216 216;" xml:space="preserve">
<g>
	<g>
		<path d="M169.1,47.4c-16.2-16.2-37.8-25.2-60.8-25.2c-22.9,0-44.5,8.9-60.7,25.2c-16.2,16.2-25.2,37.8-25.2,60.7
			c0,22.9,9,44.5,25.2,60.7c16.2,16.2,37.8,25.2,60.7,25.2h0.5c22.8-0.1,44.1-9,60.3-25.2c16.2-16.2,25.2-37.8,25.2-60.7
			C194.2,85.2,185.3,63.6,169.1,47.4z M162.3,162.1c-14.4,14.4-33.6,22.4-54,22.4c-20.4,0-39.6-7.9-54-22.4
			c-14.4-14.4-22.4-33.6-22.4-54c0-20.4,8-39.6,22.4-54s33.6-22.4,54-22.4c20.4,0,39.6,8,54,22.4c14.4,14.4,22.4,33.6,22.4,54
			C184.7,128.5,176.7,147.7,162.3,162.1z"/>
	</g>
	<g>
		<path d="M139.9,136.4c-0.4,1.6-1.7,2.9-3.3,3.3c-1.6,0.4-3.4,0-4.6-1.1l-27-27c-0.9-0.9-1.4-2.1-1.4-3.4V54c0-1.7,0.9-3.3,2.4-4.1
			c0.7-0.4,1.6-0.6,2.4-0.6c0.8,0,1.7,0.2,2.4,0.6c1.5,0.8,2.4,2.4,2.4,4.1v52.1l25.6,25.6C139.9,133,140.3,134.7,139.9,136.4z"/>
	</g>
</g>
</svg>
