<?xml version="1.0" encoding="utf-8"?>
<!-- Generator: Adobe Illustrator 27.0.0, SVG Export Plug-In . SVG Version: 6.00 Build 0)  -->
<svg version="1.1" id="Layer_1" xmlns="http://www.w3.org/2000/svg" xmlns:xlink="http://www.w3.org/1999/xlink" x="0px" y="0px"
	 viewBox="0 0 216 216" style="enable-background:new 0 0 216 216;" xml:space="preserve">
<path d="M195.6,152.4L147.2,104l34.6-34.6c0.6-0.6,1-1.4,1.2-2.2c0.9-0.2,1.6-0.6,2.2-1.2c9.3-9.3,9.3-24.5,0-33.9
	c-4.5-4.5-10.5-7-16.9-7c-6.4,0-12.4,2.5-16.9,7c-0.6,0.6-1,1.4-1.2,2.3c-0.9,0.2-1.6,0.5-2.2,1.1l-34.6,34.6L64.9,21.6
	c-0.8-0.8-1.9-1.2-3-1.2c0,0,0,0,0,0c-1.2,0-2.3,0.4-3,1.2L22.7,57.7c-0.8,0.8-1.3,1.9-1.3,3s0.4,2.2,1.3,3l48.4,48.5l-31.3,31.3
	c-0.4,0.4-0.8,1-1,1.6l-11.7,31.7c-2.5,6.7-0.2,10.3,1.4,11.9c1.1,1.1,3.2,2.5,6.4,2.5c1.7,0,3.5-0.4,5.5-1.1l31.6-11.7
	c0.6-0.2,1.2-0.6,1.6-1l31.3-31.3l48.4,48.4c0.8,0.8,1.9,1.3,3,1.3c1.1,0,2.2-0.4,3-1.3l36.1-36.1c0.8-0.8,1.3-1.9,1.3-3
	C196.9,154.3,196.4,153.2,195.6,152.4z M168.3,33.6c4.1,0,8,1.6,10.9,4.5c6,6,6,15.7,0,21.7c-0.1,0.1-0.2,0.2-0.3,0.4L157,38.5
	c0.1-0.1,0.3-0.2,0.4-0.3C160.3,35.2,164.2,33.6,168.3,33.6z M52.5,156.2c-0.8,0.8-1.3,1.9-1.3,3s0.4,2.2,1.3,3l10.4,10.4L37.5,182
	c-1.5,0.6-2.4,0.6-2.8,0.6c0-0.4,0-1.2,0.5-2.8l11.4-30.8l33.6-33.6l0.1-0.1c0.1-0.1,0.1-0.1,0.1-0.1l35.9-35.9
	c0.1,0,0.1-0.1,0.2-0.1c0,0,0.1-0.1,0.1-0.2L151,44.6l21.7,21.7l-70.6,70.6c0,0-0.1,0.1-0.1,0.1c0,0-0.1,0.1-0.1,0.1l-31.2,31.2
	l-12.1-12.1c-0.8-0.8-1.9-1.3-3-1.3S53.3,155.4,52.5,156.2z M77.2,106.2l-7.8-7.8l9.4-9.4c1.7-1.7,1.7-4.4,0-6.1
	c-1.7-1.7-4.4-1.7-6.1,0l-9.4,9.4L51,79.9l9.4-9.4c0.8-0.8,1.3-1.9,1.3-3c0-1.1-0.4-2.2-1.3-3c-0.8-0.8-1.9-1.3-3-1.3
	s-2.2,0.4-3,1.3l-9.4,9.4L31.8,60.8l30-30l45.4,45.4L77.2,106.2z M152.9,163c0.8-0.8,1.3-1.9,1.3-3s-0.4-2.2-1.3-3
	c-0.8-0.8-1.9-1.3-3-1.3s-2.2,0.4-3,1.3l-9.4,9.4L125,153.9l9.4-9.4c0.8-0.8,1.3-1.9,1.3-3s-0.4-2.2-1.3-3c-0.8-0.8-1.9-1.3-3-1.3
	s-2.2,0.4-3,1.3l-9.4,9.4l-7.8-7.8l30-30l45.4,45.4l-30,30l-13.1-13.1L152.9,163z"/>
</svg>
