<?xml version="1.0" encoding="utf-8"?>
<!-- Generator: Adobe Illustrator 27.0.0, SVG Export Plug-In . SVG Version: 6.00 Build 0)  -->
<svg version="1.1" xmlns="http://www.w3.org/2000/svg" xmlns:xlink="http://www.w3.org/1999/xlink" x="0px" y="0px"
	 viewBox="0 0 302 72.4" style="enable-background:new 0 0 302 72.4;" xml:space="preserve">
<style type="text/css">
	.st0{fill:#939393;}
	.st1{fill:#276EA0;}
	.st2{fill:#FCB07E;}
	.st3{fill:#FFFFFF;}
	.st4{fill:#282828;}
</style>
<g id="Layer_1">
	<g>
		<path class="st1" d="M86.3,39c-1.6,0-3.1-0.4-4.5-1.2c-1.3-0.8-2.4-1.9-3.2-3.2c-0.8-1.3-1.2-2.8-1.2-4.5c0-1.6,0.4-3.1,1.2-4.5
			c0.8-1.3,1.9-2.4,3.2-3.2c1.3-0.8,2.8-1.2,4.5-1.2h27.4v5.9H86.3c-0.8,0-1.5,0.3-2.1,0.9c-0.6,0.6-0.9,1.3-0.9,2.1
			c0,0.8,0.3,1.5,0.9,2.1c0.6,0.6,1.3,0.9,2.1,0.9h9.4c1.6,0,3.1,0.4,4.5,1.2c1.3,0.8,2.4,1.9,3.2,3.2c0.8,1.3,1.2,2.8,1.2,4.5
			c0,1.6-0.4,3.1-1.2,4.5c-0.8,1.3-1.9,2.4-3.2,3.2c-1.3,0.8-2.8,1.2-4.5,1.2H77.9v-5.9h17.8c0.8,0,1.5-0.3,2.1-0.9
			c0.6-0.6,0.9-1.3,0.9-2.1c0-0.8-0.3-1.5-0.9-2.1c-0.6-0.6-1.3-0.9-2.1-0.9H86.3z"/>
		<path class="st1" d="M113.8,39v11.9h-5.9V33.1h5.9v0h1.5c0.6,0,1.2-0.3,1.7-0.8l9-11h7.6l-11.8,14.5L134,50.9h-7.6l-8.9-11
			c-0.5-0.5-1-0.8-1.7-0.8H113.8z"/>
		<path class="st1" d="M143.1,50.9c-1.6,0-3.1-0.4-4.5-1.2c-1.3-0.8-2.4-1.9-3.2-3.2s-1.2-2.8-1.2-4.5c0-1.1,0.2-2.2,0.6-3.2
			c0.4-1,1-1.9,1.7-2.7c-0.7-0.8-1.3-1.7-1.7-2.7c-0.4-1-0.6-2.1-0.6-3.2c0-1.6,0.4-3.1,1.2-4.5s1.9-2.4,3.2-3.2
			c1.3-0.8,2.8-1.2,4.5-1.2h16.8v5.9h-16.8c-0.8,0-1.5,0.3-2.1,0.9c-0.6,0.6-0.9,1.3-0.9,2.1c0,0.8,0.3,1.5,0.9,2.1
			c0.6,0.6,1.3,0.9,2.1,0.9h13.8V39h-13.8c-0.8,0-1.5,0.3-2.1,0.9c-0.6,0.6-0.9,1.3-0.9,2.1c0,0.8,0.3,1.5,0.9,2.1
			c0.6,0.6,1.3,0.9,2.1,0.9h16.8v5.9H143.1z"/>
		<path class="st1" d="M172.1,50.9c-1.6,0-3.1-0.4-4.5-1.2c-1.3-0.8-2.4-1.9-3.2-3.2c-0.8-1.3-1.2-2.8-1.2-4.5
			c0-1.1,0.2-2.2,0.6-3.2c0.4-1,1-1.9,1.7-2.7c-0.7-0.8-1.3-1.7-1.7-2.7c-0.4-1-0.6-2.1-0.6-3.2c0-1.6,0.4-3.1,1.2-4.5
			c0.8-1.3,1.9-2.4,3.2-3.2c1.3-0.8,2.8-1.2,4.5-1.2h16.8v5.9h-16.8c-0.8,0-1.5,0.3-2.1,0.9c-0.6,0.6-0.9,1.3-0.9,2.1
			c0,0.8,0.3,1.5,0.9,2.1c0.6,0.6,1.3,0.9,2.1,0.9h13.8V39h-13.8c-0.8,0-1.5,0.3-2.1,0.9c-0.6,0.6-0.9,1.3-0.9,2.1
			c0,0.8,0.3,1.5,0.9,2.1c0.6,0.6,1.3,0.9,2.1,0.9h26.1v5.9H172.1z"/>
		<path class="st2" d="M229.2,50.9h-5.9V34l-10.4,15.6c-0.6,0.9-1.4,1.3-2.4,1.3h0c-1.1,0-1.9-0.5-2.5-1.3l-9.9-15.3V39h-5.9V24.2
			c0-0.7,0.2-1.3,0.6-1.8c0.4-0.5,0.9-0.9,1.5-1.1c1.4-0.3,2.5,0.1,3.3,1.2l12.8,19.9l13.3-19.9c0.8-1.1,1.9-1.5,3.3-1.2
			c0.6,0.2,1.1,0.6,1.5,1.1c0.4,0.5,0.6,1.1,0.6,1.8V50.9z"/>
		<path class="st2" d="M247.7,21.3c0.6,0,1.1,0.2,1.6,0.5c0.5,0.3,0.9,0.7,1.1,1.3l12.4,27.9h-6.5l-2.2-4.9h-12.8l-2.2,4.9h-6.5
			L244.9,23c0.2-0.5,0.6-1,1.1-1.3C246.5,21.4,247.1,21.3,247.7,21.3z M243.9,40h7.6l-3.8-8.5L243.9,40z"/>
		<path class="st2" d="M272,21.2v29.6h-5.9V21.2H272z"/>
		<path class="st2" d="M281.2,21.2v23.7H300v5.9h-21.7c-0.8,0-1.5-0.3-2.1-0.9c-0.6-0.6-0.9-1.3-0.9-2.1V21.2H281.2z"/>
		<path class="st1" d="M64,19.8c-1-1.7-2.1-3.4-3.4-4.9c-1.5-1.8-3.1-3.4-4.9-4.8l-4.6,4.6l-4.2,4.2l-3.5,3.5l-1.1,1.1h0L38.8,27
			l-0.1,0.1l-4,4L30.5,27v0l-3.6-3.6l-4.7-4.7v0l-4.2-4.2h0L13.5,10h0c-1.8,1.4-3.4,3.1-4.9,4.8l4.6,4.6l4.2,4.2l4.7,4.7l3.6,3.6
			l9,9l4.9-4.9l4-4l0.1-0.1l3.6-3.6c1.1,1.8,1.9,3.9,2.1,6.2c0.1,0.5,0.1,1.1,0.1,1.6c0,0.6,0,1.2-0.1,1.8
			c-0.9,7.3-7.1,13.1-14.7,13.1c-8.2,0-14.8-6.7-14.8-14.8c0-0.6,0-1.1,0.1-1.6L14.6,29c-0.8,2.2-1.2,4.5-1.2,7
			c0,11.8,9.5,21.3,21.3,21.3c9.3,0,17.1-5.9,20.1-14.2c0.8-2.2,1.2-4.6,1.2-7.1c0-0.5,0-0.9,0-1.4c-0.1-1.9-0.5-3.8-1.1-5.6
			c-0.7-2-1.7-3.8-2.8-5.5l4.2-4.2c1.2,1.6,2.3,3.3,3.2,5.1c1.6,3.5,2.6,7.4,2.6,11.5c0,15-12.2,27.1-27.1,27.1
			C19.7,63.2,7.5,51,7.5,36c0-4.1,0.9-8,2.6-11.5l-4.8-4.8C2.6,24.6,1.1,30.1,1.1,36c0,18.6,15,33.6,33.6,33.6
			c18.6,0,33.6-15,33.6-33.6C68.3,30.1,66.7,24.6,64,19.8z"/>
		<path class="st2" d="M27.5,16l5.3,5.3l1.6,1.6l0.1-0.1l1.5-1.5l3.2-3.2l-3.3-3.3l-5.6-5.6c1.4-0.2,2.8-0.3,4.2-0.3
			c4.1,0,7.9,0.9,11.4,2.5l4.8-4.8C46.1,4,40.5,2.5,34.7,2.5c-3.3,0-6.5,0.5-9.6,1.4c-2.3,0.7-4.6,1.6-6.6,2.8
			c-0.1,0-0.1,0.1-0.2,0.1l4.8,4.8L27.5,16z"/>
	</g>
</g>
<g id="Layer_2">
</g>
<g id="Layer_3">
</g>
</svg>
