<?xml version="1.0" encoding="utf-8"?>
<!-- Generator: Adobe Illustrator 27.0.0, SVG Export Plug-In . SVG Version: 6.00 Build 0)  -->
<svg version="1.1" xmlns="http://www.w3.org/2000/svg" xmlns:xlink="http://www.w3.org/1999/xlink" x="0px" y="0px"
	 viewBox="0 0 216 12.7" style="enable-background:new 0 0 216 12.7;" xml:space="preserve">
<style type="text/css">
	.st0{fill:#276EA0;}
	.st1{fill:#FCB07E;}
</style>
<g id="Layer_1">
	<g>
		<path class="st0" d="M14.9,7.3c-0.3,0-0.5-0.1-0.7-0.2c-0.2-0.1-0.4-0.3-0.5-0.5s-0.2-0.5-0.2-0.7c0-0.3,0.1-0.5,0.2-0.7
			s0.3-0.4,0.5-0.5c0.2-0.1,0.5-0.2,0.7-0.2h4.4v1h-4.4c-0.1,0-0.2,0-0.3,0.1c-0.1,0.1-0.1,0.2-0.1,0.3c0,0.1,0,0.2,0.1,0.3
			c0.1,0.1,0.2,0.1,0.3,0.1h1.5c0.3,0,0.5,0.1,0.7,0.2c0.2,0.1,0.4,0.3,0.5,0.5s0.2,0.5,0.2,0.7c0,0.3-0.1,0.5-0.2,0.7
			S17.4,8.8,17.1,9c-0.2,0.1-0.5,0.2-0.7,0.2h-2.9v-1h2.9c0.1,0,0.2,0,0.3-0.1c0.1-0.1,0.1-0.2,0.1-0.3c0-0.1,0-0.2-0.1-0.3
			c-0.1-0.1-0.2-0.1-0.3-0.1H14.9z"/>
		<path class="st0" d="M19.3,7.3v1.9h-1V6.3h1v0h0.2c0.1,0,0.2,0,0.3-0.1l1.4-1.8h1.2l-1.9,2.3l2,2.4h-1.2l-1.4-1.8
			c-0.1-0.1-0.2-0.1-0.3-0.1H19.3z"/>
		<path class="st0" d="M24.1,9.2c-0.3,0-0.5-0.1-0.7-0.2c-0.2-0.1-0.4-0.3-0.5-0.5c-0.1-0.2-0.2-0.5-0.2-0.7c0-0.2,0-0.4,0.1-0.5
			C22.8,7,22.9,6.9,23,6.8c-0.1-0.1-0.2-0.3-0.3-0.4c-0.1-0.2-0.1-0.3-0.1-0.5c0-0.3,0.1-0.5,0.2-0.7c0.1-0.2,0.3-0.4,0.5-0.5
			c0.2-0.1,0.5-0.2,0.7-0.2h2.7v1h-2.7c-0.1,0-0.2,0-0.3,0.1c-0.1,0.1-0.1,0.2-0.1,0.3c0,0.1,0,0.2,0.1,0.3c0.1,0.1,0.2,0.1,0.3,0.1
			h2.2v1h-2.2c-0.1,0-0.2,0-0.3,0.1c-0.1,0.1-0.1,0.2-0.1,0.3c0,0.1,0,0.2,0.1,0.3c0.1,0.1,0.2,0.1,0.3,0.1h2.7v1H24.1z"/>
		<path class="st0" d="M28.8,9.2c-0.3,0-0.5-0.1-0.7-0.2c-0.2-0.1-0.4-0.3-0.5-0.5c-0.1-0.2-0.2-0.5-0.2-0.7c0-0.2,0-0.4,0.1-0.5
			c0.1-0.2,0.2-0.3,0.3-0.4c-0.1-0.1-0.2-0.3-0.3-0.4c-0.1-0.2-0.1-0.3-0.1-0.5c0-0.3,0.1-0.5,0.2-0.7c0.1-0.2,0.3-0.4,0.5-0.5
			c0.2-0.1,0.5-0.2,0.7-0.2h2.7v1h-2.7c-0.1,0-0.2,0-0.3,0.1c-0.1,0.1-0.1,0.2-0.1,0.3c0,0.1,0,0.2,0.1,0.3c0.1,0.1,0.2,0.1,0.3,0.1
			H31v1h-2.2c-0.1,0-0.2,0-0.3,0.1c-0.1,0.1-0.1,0.2-0.1,0.3c0,0.1,0,0.2,0.1,0.3c0.1,0.1,0.2,0.1,0.3,0.1H33v1H28.8z"/>
		<path class="st1" d="M38,9.2h-1V6.4L35.4,9c-0.1,0.1-0.2,0.2-0.4,0.2h0c-0.2,0-0.3-0.1-0.4-0.2L33,6.5v0.8h-1V4.9
			c0-0.1,0-0.2,0.1-0.3c0.1-0.1,0.1-0.1,0.2-0.2c0.2-0.1,0.4,0,0.5,0.2L35,7.8l2.1-3.2c0.1-0.2,0.3-0.2,0.5-0.2
			c0.1,0,0.2,0.1,0.2,0.2C38,4.7,38,4.8,38,4.9V9.2z"/>
		<path class="st1" d="M41,4.4c0.1,0,0.2,0,0.3,0.1c0.1,0.1,0.1,0.1,0.2,0.2l2,4.5h-1L42,8.4h-2.1l-0.4,0.8h-1l2-4.5
			c0-0.1,0.1-0.2,0.2-0.2C40.8,4.4,40.9,4.4,41,4.4z M40.4,7.4h1.2L41,6L40.4,7.4z"/>
		<path class="st1" d="M44.9,4.4v4.8h-1V4.4H44.9z"/>
		<path class="st1" d="M46.4,4.4v3.8h3v1h-3.5c-0.1,0-0.2,0-0.3-0.1c-0.1-0.1-0.1-0.2-0.1-0.3V4.4H46.4z"/>
		<path class="st0" d="M11.3,4.1c-0.2-0.3-0.3-0.6-0.5-0.8c-0.2-0.3-0.5-0.5-0.8-0.8L9.2,3.3L8.6,4L8,4.6L7.8,4.7h0L7.2,5.3l0,0
			L6.6,6L5.9,5.3v0L5.3,4.7L4.6,4v0L3.9,3.3h0L3.2,2.6h0C2.9,2.8,2.6,3.1,2.4,3.3l0.7,0.7l0.7,0.7l0.8,0.8l0.6,0.6l1.5,1.5l0.8-0.8
			L8,6.1l0,0l0.6-0.6c0.2,0.3,0.3,0.6,0.3,1c0,0.1,0,0.2,0,0.3c0,0.1,0,0.2,0,0.3C8.8,8.2,7.8,9.2,6.6,9.2c-1.3,0-2.4-1.1-2.4-2.4
			c0-0.1,0-0.2,0-0.3L3.3,5.6C3.2,6,3.1,6.4,3.1,6.8c0,1.9,1.5,3.4,3.4,3.4c1.5,0,2.8-1,3.2-2.3C9.9,7.6,10,7.2,10,6.8
			c0-0.1,0-0.2,0-0.2c0-0.3-0.1-0.6-0.2-0.9C9.7,5.3,9.5,5,9.4,4.8L10,4.1c0.2,0.3,0.4,0.5,0.5,0.8C10.8,5.5,11,6.1,11,6.8
			c0,2.4-2,4.4-4.4,4.4c-2.4,0-4.4-2-4.4-4.4c0-0.7,0.1-1.3,0.4-1.9L1.8,4.1C1.4,4.9,1.1,5.8,1.1,6.8c0,3,2.4,5.4,5.4,5.4
			c3,0,5.4-2.4,5.4-5.4C12,5.8,11.7,4.9,11.3,4.1z"/>
		<path class="st1" d="M5.4,3.5l0.9,0.9l0.3,0.3l0,0l0.2-0.2l0.5-0.5L6.8,3.3L5.9,2.4c0.2,0,0.4-0.1,0.7-0.1c0.7,0,1.3,0.1,1.8,0.4
			L9.2,2C8.4,1.6,7.5,1.3,6.6,1.3C6,1.3,5.5,1.4,5,1.6C4.6,1.7,4.3,1.8,4,2c0,0,0,0,0,0l0.8,0.8L5.4,3.5z"/>
	</g>
</g>
<g id="Layer_2">
</g>
</svg>
